<svg xmlns="http://www.w3.org/2000/svg" viewBox="0 0 24 24" role="img" aria-label="Chromium">
  <circle cx="12" cy="12" r="10" fill="#4285F4"/>
  <path fill="#fff" d="M12 6.5a5.5 5.5 0 0 1 4.8 2.8H9.2A5.5 5.5 0 0 1 12 6.5z"/>
  <path fill="#34A853" d="M7.8 15.2 5 11.3h9.6A5.5 5.5 0 0 1 12 17.5a5.5 5.5 0 0 1-4.2-2.3z"/>
  <path fill="#FBBC05" d="M12 17.5a5.5 5.5 0 0 1-4.2-2.3l2.8-3.9H18a5.5 5.5 0 0 1-6 5.2z"/>
  <circle cx="12" cy="12" r="3.2" fill="#fff"/>
  <circle cx="12" cy="12" r="2.2" fill="#4285F4"/>
</svg>
